<?xml version="1.0" encoding="UTF-8"?>
<svg id="Layer_1" data-name="Layer 1" xmlns="http://www.w3.org/2000/svg" xmlns:xlink="http://www.w3.org/1999/xlink" viewBox="0 0 328 265">
  <defs>
    <style>
      .cls-1, .cls-2, .cls-3, .cls-4, .cls-5, .cls-6, .cls-7 {
        fill: none;
      }

      .cls-8 {
        fill: url(#linear-gradient-5);
      }

      .cls-8, .cls-9, .cls-10, .cls-11, .cls-12, .cls-5, .cls-13, .cls-14, .cls-15, .cls-16, .cls-17 {
        stroke: #fff;
        stroke-linecap: round;
      }

      .cls-8, .cls-9, .cls-10, .cls-11, .cls-12, .cls-15, .cls-16, .cls-17 {
        stroke-linejoin: round;
      }

      .cls-9 {
        fill: url(#linear-gradient-6);
      }

      .cls-10 {
        fill: url(#linear-gradient-8);
      }

      .cls-11 {
        fill: url(#linear-gradient-7);
      }

      .cls-12 {
        fill: url(#linear-gradient-9);
      }

      .cls-18 {
        fill: url(#linear-gradient);
        opacity: .7;
      }

      .cls-2 {
        stroke: url(#linear-gradient-14);
      }

      .cls-2, .cls-3, .cls-4 {
        stroke-width: 33px;
      }

      .cls-2, .cls-3, .cls-4, .cls-5, .cls-13, .cls-14 {
        stroke-miterlimit: 10;
      }

      .cls-3 {
        stroke: url(#linear-gradient-16);
      }

      .cls-4 {
        stroke: url(#linear-gradient-15);
      }

      .cls-13 {
        fill: #80dee1;
      }

      .cls-14 {
        fill: #c19ae2;
      }

      .cls-15 {
        fill: url(#linear-gradient-11);
      }

      .cls-16 {
        fill: url(#linear-gradient-10);
      }

      .cls-17 {
        fill: url(#linear-gradient-12);
      }

      .cls-19 {
        fill: url(#linear-gradient-3);
      }

      .cls-20 {
        fill: url(#linear-gradient-4);
      }

      .cls-21 {
        fill: url(#linear-gradient-2);
      }

      .cls-6 {
        filter: url(#drop-shadow-1);
      }

      .cls-22 {
        fill: url(#linear-gradient-13);
      }

      .cls-7 {
        clip-path: url(#clippath);
      }
    </style>
    <clipPath id="clippath">
      <rect class="cls-1" x="0" y="0" width="328" height="265"/>
    </clipPath>
    <linearGradient id="linear-gradient" x1="790.86" y1="-448.16" x2="791.84" y2="-446.71" gradientTransform="translate(-224623.83 -115245.11) scale(284 -258)" gradientUnits="userSpaceOnUse">
      <stop offset=".15" stop-color="#31a6ff"/>
      <stop offset=".45" stop-color="#54c2f9"/>
      <stop offset=".81" stop-color="#79e0f3"/>
      <stop offset="1" stop-color="#88ecf1"/>
    </linearGradient>
    <linearGradient id="linear-gradient-2" x1="231.75" y1="266.69" x2="231.75" y2="183.64" gradientUnits="userSpaceOnUse">
      <stop offset="0" stop-color="#8686ff"/>
      <stop offset="1" stop-color="#ffa3eb"/>
    </linearGradient>
    <linearGradient id="linear-gradient-3" x1="213.39" y1="241.6" x2="296.55" y2="241.6" gradientUnits="userSpaceOnUse">
      <stop offset="0" stop-color="#b9e7e9"/>
      <stop offset=".09" stop-color="#a7e4e5"/>
      <stop offset=".48" stop-color="#5cd8d4"/>
      <stop offset=".75" stop-color="#2dd1ca"/>
      <stop offset=".89" stop-color="#1ccfc6"/>
    </linearGradient>
    <linearGradient id="linear-gradient-4" x1="271.57" y1="240.97" x2="123.74" y2="240.97" gradientUnits="userSpaceOnUse">
      <stop offset=".1" stop-color="#88ecf1"/>
      <stop offset=".21" stop-color="#7addf3"/>
      <stop offset=".43" stop-color="#57b8f9"/>
      <stop offset=".57" stop-color="#3c9cff"/>
    </linearGradient>
    <linearGradient id="linear-gradient-5" x1="13179.32" y1="207.63" x2="13181.2" y2="223.32" gradientTransform="translate(13319.3) rotate(-180) scale(1 -1)" gradientUnits="userSpaceOnUse">
      <stop offset="0" stop-color="#97e63f"/>
      <stop offset="1" stop-color="#15c675"/>
    </linearGradient>
    <linearGradient id="linear-gradient-6" y1="184.46" x2="13181.2" y2="200.14" xlink:href="#linear-gradient-5"/>
    <linearGradient id="linear-gradient-7" x1="13191.74" y1="202.95" x2="13191.96" y2="204.83" xlink:href="#linear-gradient-5"/>
    <linearGradient id="linear-gradient-8" x1="13168.56" y1="202.95" x2="13168.78" y2="204.83" xlink:href="#linear-gradient-5"/>
    <linearGradient id="linear-gradient-9" x1="13164.32" y1="179.4" x2="13164.43" y2="180.34" xlink:href="#linear-gradient-5"/>
    <linearGradient id="linear-gradient-10" x1="13149.2" y1="179.4" x2="13149.31" y2="180.34" xlink:href="#linear-gradient-5"/>
    <linearGradient id="linear-gradient-11" x1="13156.34" y1="168.38" x2="13157.28" y2="176.23" xlink:href="#linear-gradient-5"/>
    <linearGradient id="linear-gradient-12" x1="13156.34" y1="183.51" x2="13157.28" y2="191.35" xlink:href="#linear-gradient-5"/>
    <filter id="drop-shadow-1" filterUnits="userSpaceOnUse">
      <feOffset dx="-2" dy="2"/>
      <feGaussianBlur result="blur" stdDeviation="6"/>
      <feFlood flood-color="#000" flood-opacity=".15"/>
      <feComposite in2="blur" operator="in"/>
      <feComposite in="SourceGraphic"/>
    </filter>
    <linearGradient id="linear-gradient-13" x1="214.97" y1="257.03" x2="251.9" y2="257.03" gradientUnits="userSpaceOnUse">
      <stop offset="0" stop-color="#7154e7"/>
      <stop offset="1" stop-color="#3195ff"/>
    </linearGradient>
    <linearGradient id="linear-gradient-14" x1="285.94" y1="211.19" x2="216.56" y2="211.19" gradientUnits="userSpaceOnUse">
      <stop offset="0" stop-color="#3195ff"/>
      <stop offset=".76" stop-color="#7154e7"/>
    </linearGradient>
    <linearGradient id="linear-gradient-15" x1="262.56" y1="181.66" x2="262.56" y2="134.18" xlink:href="#linear-gradient-13"/>
    <linearGradient id="linear-gradient-16" x1="215.55" y1="182.2" x2="215.55" y2="134.24" xlink:href="#linear-gradient-13"/>
  </defs>
  <g class="cls-7">
    <g>
      <path id="Background-3" class="cls-18" d="m2.89-5h320.7c6.71,0,12.15,4.83,12.15,10.79v256.85c0,5.96-5.44,10.79-12.15,10.79H2.89c-6.71,0-12.15-4.83-12.15-10.79V5.79C-9.26-.17-3.82-5,2.89-5Z"/>
      <path class="cls-21" d="m314.31,260.55c.04.58-.33,1.08-.88,1.2l-8.92,1.62c.08,1.12.12,2.2.08,3.32h-73.17v-.63h-72.59c-.04-1.11,0-2.18.09-3.3l-8.86-1.6c-.54-.13-.91-.62-.87-1.2l.54-5.07c.08-.53.53-.95,1.11-.95l8.98.25c.33-2.18.79-4.33,1.36-6.43l-8.32-3.42c-.5-.2-.79-.78-.62-1.32l1.61-4.86c.16-.54.7-.82,1.23-.7l8.74,2.1c.78-2.06,1.69-4.08,2.68-6.06l-7.38-5.02c-.49-.33-.62-.95-.33-1.45l2.56-4.41c.24-.49.86-.66,1.36-.41l8.08,3.88c1.19-1.86,2.51-3.63,3.87-5.36l-6.14-6.47c-.41-.41-.41-1.03-.04-1.49l3.42-3.75c.37-.45.99-.49,1.44-.16l7.13,5.52c1.57-1.56,3.17-3.05,4.9-4.45l-4.73-7.62c-.29-.5-.17-1.12.28-1.45l4.12-3.01c.46-.32,1.12-.24,1.45.17l5.81,6.88c1.85-1.23,3.79-2.35,5.73-3.34l-3.01-8.44c-.21-.54.08-1.12.57-1.32l4.66-2.11c.5-.2,1.11,0,1.36.5l4.25,7.87c2.06-.82,4.16-1.48,6.3-2.06l-1.19-8.86c-.04-.54.28-1.07.86-1.2l4.99-1.07c.53-.08,1.07.25,1.24.79l2.51,8.57c2.18-.33,4.37-.58,6.59-.7l.66-8.9c.04-.58.54-.99,1.07-.99h5.1c.54,0,1.04.41,1.08.99l.67,8.97c2.24.13,4.44.38,6.64.71l2.53-8.64c.17-.54.71-.87,1.25-.79l5.03,1.08c.58.13.91.67.87,1.21l-1.21,8.93c2.16.58,4.28,1.24,6.36,2.07l4.27-7.93c.25-.5.88-.71,1.38-.5l4.69,2.12c.5.21.79.79.58,1.33l-3.03,8.51c1.95,1,3.9,2.12,5.77,3.37l5.85-6.94c.34-.42,1-.5,1.46-.17l4.15,3.04c.46.33.58.95.29,1.45l-4.77,7.68c1.74,1.41,3.36,2.91,4.94,4.49l7.18-5.57c.46-.33,1.08-.29,1.46.17l3.44,3.78c.38.45.38,1.08-.04,1.49l-6.19,6.52c1.37,1.75,2.7,3.53,3.91,5.4l8.14-3.9c.5-.25,1.12-.09,1.37.41l2.57,4.45c.29.49.17,1.12-.33,1.45l-7.43,5.07c.99,1.99,1.91,4.02,2.7,6.1l8.8-2.12c.54-.12,1.08.17,1.24.71l1.62,4.9c.17.54-.12,1.12-.62,1.33l-8.39,3.44c.58,2.12,1.04,4.28,1.37,6.48l9.06-.25c.58,0,1.03.42,1.12.96l.54,5.11Z"/>
      <path class="cls-19" d="m281.75,266.69h-50.19v-50.17c27.72,0,50.19,22.47,50.19,50.17Z"/>
      <path class="cls-20" d="m181.38,266.06h50.19v-50.17c-27.72,0-50.19,22.47-50.19,50.17Z"/>
      <path class="cls-5" d="m231.56,215.89c-27.72,0-50.19,22.47-50.19,50.17"/>
      <g>
        <g>
          <line id="Line_91355" data-name="Line 91355" class="cls-8" x1="139.04" y1="207.52" x2="139.04" y2="223.43"/>
          <line id="Line_91356" data-name="Line 91356" class="cls-9" x1="139.04" y1="184.35" x2="139.04" y2="200.26"/>
          <line id="Line_91357" data-name="Line 91357" class="cls-11" x1="135.41" y1="203.89" x2="119.5" y2="203.89"/>
          <line id="Line_91358" data-name="Line 91358" class="cls-10" x1="158.59" y1="203.89" x2="142.68" y2="203.89"/>
        </g>
        <g>
          <line id="Line_91347" data-name="Line 91347" class="cls-12" x1="158.91" y1="179.87" x2="150.95" y2="179.87"/>
          <line id="Line_91348" data-name="Line 91348" class="cls-16" x1="174.03" y1="179.87" x2="166.07" y2="179.87"/>
          <line id="Line_91349" data-name="Line 91349" class="cls-15" x1="162.49" y1="176.29" x2="162.49" y2="168.33"/>
          <line id="Line_91350" data-name="Line 91350" class="cls-17" x1="162.49" y1="191.41" x2="162.49" y2="183.45"/>
        </g>
      </g>
      <path class="cls-5" d="m331.69,117.18s-4.43,81.3-102.68,98.37"/>
      <g class="cls-6">
        <path class="cls-22" d="m214.97,266.52h0c0-10.48,8.27-18.98,18.47-18.98h0c10.2,0,18.47,8.5,18.47,18.98h0"/>
        <path class="cls-2" d="m269.44,181.49c0,30.28-36.38,26.39-36.38,59.4"/>
        <path class="cls-4" d="m239.14,150.68c16.76,0,30.34,13.87,30.34,30.98"/>
      </g>
      <path class="cls-3" d="m208.1,182.2c0-17.38,14.06-31.46,31.41-31.46"/>
      <circle class="cls-14" cx="190.05" cy="237.57" r="2.68"/>
      <circle class="cls-13" cx="305.53" cy="175.31" r="2.68"/>
    </g>
  </g>
</svg>