<?xml version="1.0" encoding="UTF-8"?>
<svg id="Layer_1" data-name="Layer 1" xmlns="http://www.w3.org/2000/svg" xmlns:xlink="http://www.w3.org/1999/xlink" viewBox="0 0 328 265">
  <defs>
    <style>
      .cls-1, .cls-2, .cls-3, .cls-4, .cls-5, .cls-6 {
        fill: none;
      }

      .cls-2, .cls-4, .cls-7, .cls-8, .cls-9, .cls-10, .cls-11, .cls-12, .cls-13, .cls-14 {
        stroke: #fff;
        stroke-linecap: round;
      }

      .cls-2, .cls-7, .cls-8, .cls-9, .cls-10, .cls-11, .cls-12, .cls-13, .cls-14 {
        stroke-linejoin: round;
      }

      .cls-3 {
        opacity: .59;
      }

      .cls-15 {
        fill: url(#linear-gradient);
      }

      .cls-4 {
        stroke-dasharray: 0 0 2 5;
        stroke-miterlimit: 10;
        stroke-width: 1.17px;
      }

      .cls-7 {
        fill: url(#linear-gradient-18);
      }

      .cls-8 {
        fill: url(#linear-gradient-20);
      }

      .cls-9 {
        fill: url(#linear-gradient-22);
      }

      .cls-10 {
        fill: url(#linear-gradient-19);
      }

      .cls-11 {
        fill: url(#linear-gradient-16);
      }

      .cls-12 {
        fill: url(#linear-gradient-17);
      }

      .cls-13 {
        fill: url(#linear-gradient-21);
      }

      .cls-14 {
        fill: url(#linear-gradient-23);
      }

      .cls-16 {
        fill: url(#linear-gradient-8);
      }

      .cls-17 {
        fill: url(#linear-gradient-9);
      }

      .cls-18 {
        fill: url(#linear-gradient-3);
      }

      .cls-19 {
        fill: url(#linear-gradient-4);
      }

      .cls-20 {
        fill: url(#linear-gradient-2);
      }

      .cls-21 {
        fill: url(#linear-gradient-6);
      }

      .cls-22 {
        fill: url(#linear-gradient-7);
      }

      .cls-23 {
        fill: url(#linear-gradient-5);
      }

      .cls-5 {
        filter: url(#drop-shadow-1);
      }

      .cls-24 {
        fill: url(#linear-gradient-14);
      }

      .cls-25 {
        fill: url(#linear-gradient-15);
      }

      .cls-26 {
        fill: url(#linear-gradient-13);
      }

      .cls-27 {
        fill: url(#linear-gradient-12);
      }

      .cls-28 {
        fill: url(#linear-gradient-10);
      }

      .cls-29 {
        fill: url(#linear-gradient-11);
      }

      .cls-6 {
        clip-path: url(#clippath);
      }
    </style>
    <clipPath id="clippath">
      <rect class="cls-1" x="0" y=".01" width="328" height="265"/>
    </clipPath>
    <linearGradient id="linear-gradient" x1="129.63" y1="-448.34" x2="130.61" y2="-446.76" gradientTransform="translate(-36852.01 -115247.11) scale(284 -258)" gradientUnits="userSpaceOnUse">
      <stop offset=".27" stop-color="#22c972"/>
      <stop offset="1" stop-color="#97e63f"/>
    </linearGradient>
    <linearGradient id="linear-gradient-2" x1="233.72" y1="217.76" x2="366.43" y2="272.54" gradientTransform="translate(494.47 -55.27) rotate(90)" gradientUnits="userSpaceOnUse">
      <stop offset="0" stop-color="#15c675"/>
      <stop offset="1" stop-color="#97e63f"/>
    </linearGradient>
    <linearGradient id="linear-gradient-3" x1="114.07" y1="219.6" x2="260.2" y2="219.6" gradientTransform="translate(400.16 39.04) rotate(90)" gradientUnits="userSpaceOnUse">
      <stop offset=".05" stop-color="#ffd82c"/>
      <stop offset=".57" stop-color="#97e63f"/>
      <stop offset="1" stop-color="#15c675"/>
    </linearGradient>
    <linearGradient id="linear-gradient-4" x1="4678.86" y1="-4332.15" x2="4689.73" y2="-4241.21" gradientTransform="translate(-4144.11 4904.17) rotate(-90) scale(1 -1)" xlink:href="#linear-gradient-2"/>
    <linearGradient id="linear-gradient-5" x1="308.01" y1="227.8" x2="213.59" y2="235.09" gradientTransform="translate(493.46 -30.77) rotate(90)" gradientUnits="userSpaceOnUse">
      <stop offset="0" stop-color="#3cadff"/>
      <stop offset="1" stop-color="#80e3ab"/>
    </linearGradient>
    <filter id="drop-shadow-1" filterUnits="userSpaceOnUse">
      <feOffset dx="-2" dy="2"/>
      <feGaussianBlur result="blur" stdDeviation="6"/>
      <feFlood flood-color="#000" flood-opacity=".13"/>
      <feComposite in2="blur" operator="in"/>
      <feComposite in="SourceGraphic"/>
    </filter>
    <linearGradient id="linear-gradient-6" x1="201.17" y1="156.46" x2="219.62" y2="156.46" gradientUnits="userSpaceOnUse">
      <stop offset=".09" stop-color="#7154f8"/>
      <stop offset=".42" stop-color="#5972fa"/>
      <stop offset=".9" stop-color="#31a6ff"/>
    </linearGradient>
    <linearGradient id="linear-gradient-7" x1="236.95" y1="156.45" x2="255.39" y2="156.45" xlink:href="#linear-gradient-6"/>
    <linearGradient id="linear-gradient-8" x1="215.71" y1="150.45" x2="203.36" y2="190.15" gradientUnits="userSpaceOnUse">
      <stop offset="0" stop-color="#ffd82c"/>
      <stop offset="1" stop-color="#97e63f"/>
    </linearGradient>
    <linearGradient id="linear-gradient-9" x1="247.3" y1="156.16" x2="256.87" y2="198.38" gradientUnits="userSpaceOnUse">
      <stop offset="0" stop-color="#ffd82c"/>
      <stop offset="1" stop-color="#97e63f"/>
    </linearGradient>
    <linearGradient id="linear-gradient-10" x1="214.47" y1="194.04" x2="242.07" y2="194.04" xlink:href="#linear-gradient-6"/>
    <linearGradient id="linear-gradient-11" x1="228.28" y1="204.31" x2="228.28" y2="162.63" gradientUnits="userSpaceOnUse">
      <stop offset=".03" stop-color="#15c575"/>
      <stop offset="1" stop-color="#8ae55a"/>
    </linearGradient>
    <linearGradient id="linear-gradient-12" x1="270.76" y1="201.73" x2="250.02" y2="222.47" gradientUnits="userSpaceOnUse">
      <stop offset=".1" stop-color="#80dee1"/>
      <stop offset=".86" stop-color="#6abffd"/>
      <stop offset=".9" stop-color="#69beff"/>
    </linearGradient>
    <linearGradient id="linear-gradient-13" x1="260.4" y1="235.58" x2="260.4" y2="188.62" xlink:href="#linear-gradient-6"/>
    <linearGradient id="linear-gradient-14" x1="196.17" y1="235.58" x2="196.17" y2="188.61" xlink:href="#linear-gradient-6"/>
    <linearGradient id="linear-gradient-15" x1="206.53" y1="201.73" x2="185.8" y2="222.47" xlink:href="#linear-gradient-12"/>
    <linearGradient id="linear-gradient-16" x1="7168.64" y1="-4346.91" x2="7170.52" y2="-4331.23" gradientTransform="translate(4647.39 7332.89) rotate(-90)" gradientUnits="userSpaceOnUse">
      <stop offset="0" stop-color="#97e63f"/>
      <stop offset="1" stop-color="#15c675"/>
    </linearGradient>
    <linearGradient id="linear-gradient-17" y1="-4370.09" y2="-4354.4" xlink:href="#linear-gradient-16"/>
    <linearGradient id="linear-gradient-18" x1="7181.06" y1="-4351.59" x2="7181.28" y2="-4349.72" xlink:href="#linear-gradient-16"/>
    <linearGradient id="linear-gradient-19" x1="7157.88" y1="-4351.59" x2="7158.1" y2="-4349.72" xlink:href="#linear-gradient-16"/>
    <linearGradient id="linear-gradient-20" x1="7197.61" y1="-4374.6" x2="7197.72" y2="-4373.66" xlink:href="#linear-gradient-16"/>
    <linearGradient id="linear-gradient-21" x1="7182.49" y1="-4374.6" x2="7182.6" y2="-4373.66" xlink:href="#linear-gradient-16"/>
    <linearGradient id="linear-gradient-22" x1="7189.64" y1="-4385.61" x2="7190.57" y2="-4377.77" xlink:href="#linear-gradient-16"/>
    <linearGradient id="linear-gradient-23" x1="7189.64" y1="-4370.49" x2="7190.57" y2="-4362.65" xlink:href="#linear-gradient-16"/>
  </defs>
  <g class="cls-6">
    <g>
      <g class="cls-3">
        <path id="Background-5" class="cls-15" d="m.55-5h320.7c6.71,0,12.15,4.81,12.15,10.74v255.54c0,5.93-5.44,10.74-12.15,10.74H.55c-6.71,0-12.15-4.81-12.15-10.74V5.73C-11.6-.2-6.16-5,.55-5Z"/>
      </g>
      <path class="cls-20" d="m229.07,173.81h91.59c0,50.55-41.04,91.59-91.59,91.59h0v-91.59h0Z" transform="translate(55.27 494.47) rotate(-90)"/>
      <path class="cls-18" d="m134.77,173.81h0c50.55,0,91.59,41.04,91.59,91.59h-91.59v-91.59h0Z" transform="translate(-39.04 400.16) rotate(-90)"/>
      <path class="cls-19" d="m137.46,173.81h0c50.55,0,91.59,41.04,91.59,91.59h-91.59v-91.59h0Z" transform="translate(366.51 439.2) rotate(180)"/>
      <path class="cls-23" d="m228.06,197.29h68.1v1.49c0,36.76-29.85,66.61-66.61,66.61h-1.49v-68.1h0Z" transform="translate(30.77 493.46) rotate(-90)"/>
      <g id="Group_380523" data-name="Group 380523" class="cls-5">
        <g id="Group_380522" data-name="Group 380522">
          <path id="Path_1032094" data-name="Path 1032094" class="cls-21" d="m201.17,157.65c3.62-1.26,7.58-1.1,11.09.44,3.02,1.09,5.42,3.42,6.61,6.41.39-2.53.64-5.09.75-7.65-.17-3.16-2.06-5.97-4.92-7.32-3.56-1.86-8.02-1.48-10.44,1.9-1.24,1.96-2.27,4.05-3.08,6.22"/>
          <path id="Path_1032095" data-name="Path 1032095" class="cls-22" d="m236.95,156.84c.11,2.56.36,5.1.75,7.63,1.18-2.98,3.59-5.3,6.61-6.39,3.51-1.54,7.47-1.7,11.09-.44-.81-2.17-1.84-4.26-3.08-6.22-2.42-3.39-6.88-3.76-10.44-1.9-2.86,1.35-4.75,4.16-4.93,7.32"/>
          <path id="Path_1032096" data-name="Path 1032096" class="cls-16" d="m178.07,197.14c8.25-10,23.04-11.42,33.04-3.17,5.41,4.46,8.54,11.12,8.53,18.13v-12.25c0-4.58-2.86-9.15-5.17-11.53l5.17-19.59c.07-4.76-2.9-9.04-7.38-10.65-3.51-1.54-7.47-1.7-11.08-.45-2.58.91-4.74,2.72-6.1,5.09-2.08,3.69-11.83,23.74-17.01,34.41"/>
          <path id="Path_1032097" data-name="Path 1032097" class="cls-17" d="m236.97,199.15c-.02.23-.04.47-.06.7v12.24c0-2.81.5-5.61,1.5-8.24h0c4.56-12.15,18.1-18.29,30.24-13.73,4.76,1.79,8.81,5.08,11.55,9.37-4.89-9.74-16.47-32.77-18.71-36.76-1.36-2.37-3.52-4.17-6.09-5.09-3.62-1.26-7.58-1.1-11.09.44-4.49,1.61-7.46,5.89-7.39,10.65l5.16,19.59c-2.91,2.91-4.71,6.73-5.11,10.83"/>
          <path id="Path_1032098" data-name="Path 1032098" class="cls-28" d="m214.47,188.33c2.31,2.39,5.16,6.95,5.16,11.53h0s17.27,0,17.27,0h0c.02-.24.03-.48.06-.71.4-4.09,2.2-7.92,5.11-10.83l-.03-.11h-27.53l-.03.11Z"/>
          <path id="Path_1032099" data-name="Path 1032099" class="cls-29" d="m214.5,188.22h27.55l-5.14-19.47h-17.27l-5.14,19.47Z"/>
          <path id="Path_1032100" data-name="Path 1032100" class="cls-27" d="m245.73,212.1c0,8.1,6.57,14.66,14.66,14.66,8.1,0,14.66-6.57,14.66-14.66,0-8.1-6.57-14.66-14.66-14.66-4.85,0-9.39,2.4-12.12,6.41-1.65,2.43-2.54,5.31-2.54,8.25"/>
          <path id="Path_1032101" data-name="Path 1032101" class="cls-26" d="m238.41,203.86h0c4.56-12.15,18.1-18.29,30.24-13.73,4.76,1.79,8.81,5.08,11.55,9.37h0c1.08,2.15,1.84,3.66,2.1,4.16.02.03.03.06.04.09.02.03.04.07.05.1,4.55,12.14-1.6,25.68-13.74,30.23-12.14,4.55-25.68-1.6-30.23-13.74-.99-2.63-1.49-5.42-1.49-8.24h0c0-2.82.5-5.62,1.5-8.25m21.98,22.91c8.1,0,14.66-6.56,14.66-14.66,0-8.1-6.56-14.66-14.66-14.66-8.1,0-14.66,6.56-14.66,14.66h0c0,8.1,6.56,14.66,14.66,14.66"/>
          <path id="Path_1032102" data-name="Path 1032102" class="cls-2" d="m260.84,202.84c4.74,0,8.59,3.82,8.6,8.55"/>
          <path id="Path_1032103" data-name="Path 1032103" class="cls-24" d="m178.07,197.14c8.26-10,23.06-11.41,33.06-3.15,10,8.26,11.41,23.06,3.15,33.06-8.26,10-23.06,11.41-33.06,3.15-5.4-4.46-8.53-11.1-8.53-18.1,0-5.46,1.9-10.75,5.38-14.96m18.1,29.62c8.1,0,14.67-6.56,14.67-14.66,0-8.1-6.56-14.67-14.66-14.67-8.1,0-14.67,6.56-14.67,14.66h0c0,8.1,6.56,14.66,14.66,14.67"/>
          <path id="Path_1032104" data-name="Path 1032104" class="cls-25" d="m181.5,212.1c0,8.1,6.57,14.66,14.66,14.66,8.1,0,14.66-6.57,14.66-14.66,0-8.1-6.57-14.66-14.66-14.66-4.85,0-9.39,2.4-12.12,6.41-1.66,2.43-2.54,5.31-2.54,8.25"/>
          <path id="Path_1032105" data-name="Path 1032105" class="cls-2" d="m196.87,202.84c4.74,0,8.59,3.82,8.6,8.55"/>
        </g>
      </g>
      <g>
        <g>
          <line id="Line_91355" data-name="Line 91355" class="cls-11" x1="300.37" y1="163.31" x2="316.28" y2="163.31"/>
          <line id="Line_91356" data-name="Line 91356" class="cls-12" x1="277.19" y1="163.31" x2="293.11" y2="163.31"/>
          <line id="Line_91357" data-name="Line 91357" class="cls-7" x1="296.74" y1="159.67" x2="296.74" y2="143.76"/>
          <line id="Line_91358" data-name="Line 91358" class="cls-10" x1="296.74" y1="182.85" x2="296.74" y2="166.94"/>
        </g>
        <g>
          <line id="Line_91347" data-name="Line 91347" class="cls-8" x1="273.26" y1="139.2" x2="273.26" y2="131.24"/>
          <line id="Line_91348" data-name="Line 91348" class="cls-13" x1="273.26" y1="154.32" x2="273.26" y2="146.37"/>
          <line id="Line_91349" data-name="Line 91349" class="cls-9" x1="269.68" y1="142.78" x2="261.72" y2="142.78"/>
          <line id="Line_91350" data-name="Line 91350" class="cls-14" x1="284.8" y1="142.78" x2="276.85" y2="142.78"/>
        </g>
      </g>
      <path class="cls-4" d="m151.29,287.54s13.17-53.75,77.93-43.48c81.88,12.99,74-53.82,103.91-65.51,4.26-1.66,8.59-3.06,12.93-4.23"/>
    </g>
  </g>
</svg>